<svg xmlns="http://www.w3.org/2000/svg" xmlns:xlink="http://www.w3.org/1999/xlink" viewBox="0 0 32 32">
  <defs>
    <linearGradient id="linear-gradient--calendar" x1="3.616" y1="469.616" x2="28.384" y2="494.384" gradientTransform="translate(0 -466)" gradientUnits="userSpaceOnUse">
      <stop offset="0" stop-color="#f25437"/>
      <stop offset="1" stop-color="#cd4e39"/>
    </linearGradient>
  </defs>
  <title>calendar-app-color</title>
  <g>
    <path d="M16,.5C3.643.5.5,3.643.5,16S3.643,31.5,16,31.5,31.5,28.357,31.5,16,28.357.5,16,.5Z" fill="url(#linear-gradient--calendar)"/>
    <path d="M22.5,10.58H21.094V9.5a.932.932,0,0,0-.867-.868h-.433a.932.932,0,0,0-.867.868V10.58H12.965V9.5a.933.933,0,0,0-.867-.868h-.434A.933.933,0,0,0,10.8,9.5V10.58H9.5a.856.856,0,0,0-.868.868V22.5a.856.856,0,0,0,.868.868H22.5a.856.856,0,0,0,.868-.868V11.448A.933.933,0,0,0,22.5,10.58ZM21.094,20.986H10.906v-6.4H21.094Z" fill="#fff"/>
  </g>
</svg>
