<svg id="Main_Art" data-name="Main Art" xmlns="http://www.w3.org/2000/svg" xmlns:xlink="http://www.w3.org/1999/xlink" viewBox="0 0 127.1 127.1"><defs><linearGradient id="New_Gradient_Swatch_4" x1="14.26" y1="14.71" x2="112.84" y2="113.29" gradientUnits="userSpaceOnUse"><stop offset="0" stop-color="#f25437"/><stop offset="1" stop-color="#cd4e39"/></linearGradient></defs><title>app-icon-calendar</title><path d="M63.55,2.39C14.27,2.39,1.94,14.71,1.94,64s12.33,61.61,61.61,61.61S125.16,113.29,125.16,64,112.84,2.39,63.55,2.39Z" style="fill:url(#New_Gradient_Swatch_4)"/><path d="M90.55,40.94H85V36.63a3.42,3.42,0,0,0-3.41-3.42H79.94a3.42,3.42,0,0,0-3.41,3.42v4.31H53V36.63a3.42,3.42,0,0,0-3.41-3.42H48a3.42,3.42,0,0,0-3.42,3.42v4.31H39a3.61,3.61,0,0,0-3.61,3.61V88.26A3.61,3.61,0,0,0,39,91.86H90.55a3.61,3.61,0,0,0,3.61-3.6V44.55A3.61,3.61,0,0,0,90.55,40.94ZM85,82.38H44.55V56.9H85Z" style="fill:#fff"/></svg>