<?xml version="1.0" encoding="utf-8"?>
<svg version="1.1" id="Layer_1" xmlns="http://www.w3.org/2000/svg" xmlns:xlink="http://www.w3.org/1999/xlink" x="0px" y="0px"
	 viewBox="0 0 100 100" style="enable-background:new 0 0 100 100;" xml:space="preserve">
<style type="text/css">
	.st0{fill:#666666;}
</style>
<path id="x" class="st0" d="M59.5,50l36.1-36.1c2.6-2.6,2.6-6.9,0-9.5c-2.6-2.6-6.9-2.6-9.5,0L50,40.4L13.9,4.3
	c-2.6-2.6-6.9-2.6-9.5,0s-2.6,6.9,0,9.5L40.5,50L4.3,86.1c-2.6,2.5-2.7,6.7-0.2,9.3c0.1,0.1,0.2,0.2,0.2,0.2
	c2.5,2.6,6.7,2.7,9.3,0.2c0.1-0.1,0.2-0.2,0.2-0.2L50,59.5l36.1,36.1c2.5,2.6,6.7,2.7,9.3,0.2c0.1-0.1,0.2-0.2,0.2-0.2
	c2.6-2.5,2.7-6.7,0.2-9.3c-0.1-0.1-0.2-0.2-0.2-0.2L59.5,50z"/>
</svg>
