<svg xmlns="http://www.w3.org/2000/svg" xmlns:xlink="http://www.w3.org/1999/xlink" viewBox="0 0 32 32">
  <defs>
    <linearGradient id="linear-gradient--giving" x1="0.5" y1="32.658" x2="31.5" y2="32.658" gradientTransform="matrix(1, 0, 0, -1, 0, 48.658)" gradientUnits="userSpaceOnUse">
      <stop offset="0" stop-color="#f5c426"/>
      <stop offset="1" stop-color="#f2b327"/>
    </linearGradient>
  </defs>
  <title>giving-app-color</title>
  <g>
    <path d="M31.5,16c0,12.4-3.1,15.5-15.5,15.5S.5,28.4.5,16,3.6.5,16,.5,31.5,3.6,31.5,16Z" fill="url(#linear-gradient--giving)"/>
    <path d="M16.461,21.657a.79.79,0,0,1-.922,0c-1.961-1.383-9.318-7-5.09-10.641a3.716,3.716,0,0,1,5.007.318l.543.543.543-.543a3.716,3.716,0,0,1,5.007-.318C25.779,14.658,18.422,20.274,16.461,21.657Z" fill="#fff"/>
  </g>
</svg>
