<svg id="Layer_1" data-name="Layer 1" xmlns="http://www.w3.org/2000/svg" viewBox="0 0 316.29 75.45">
  <title>Artboard 1</title>
  <g>
    <g>
      <path d="M34.15,32.78l-5.37,1.59a5.33,5.33,0,0,1-3.28,0l-5.4-1.61a.36.36,0,0,0-.44.23.31.31,0,0,0,0,.1V40a.43.43,0,0,0,.3.42l6.62,2a2,2,0,0,0,1.07,0l6.67-2a.43.43,0,0,0,.3-.41V33.12a.34.34,0,0,0-.35-.36.25.25,0,0,0-.12,0Z" style="fill: #fff"/>
      <path d="M46.77,16.94,31.28,12.33a14.69,14.69,0,0,0-8.31,0L7.49,16.94a8.35,8.35,0,0,0-5.85,8V50a8.36,8.36,0,0,0,5.85,8L23,62.61a14.51,14.51,0,0,0,8.31,0L46.77,58a8.36,8.36,0,0,0,5.85-8V24.91a8.35,8.35,0,0,0-5.85-8ZM39.22,42.11A2,2,0,0,1,37.76,44l-9.4,2.88a4.06,4.06,0,0,1-2.44,0l-6.15-1.83a.09.09,0,0,0-.12,0s0,0,0,0v4.54a.72.72,0,0,1-.72.72.78.78,0,0,1-.22,0l-3.15-.92a.74.74,0,0,1-.52-.7V30a2.61,2.61,0,0,1,2.64-2.58,3.1,3.1,0,0,1,.68.1L26.7,30a1.49,1.49,0,0,0,.81,0l8.26-2.47a2.65,2.65,0,0,1,3.33,1.73,2.81,2.81,0,0,1,.12.82Z" style="fill: #fff"/>
    </g>
    <rect x="80.14" y="2.23" width="2" height="71" style="fill: #fff"/>
    <g style="isolation: isolate">
      <g style="isolation: isolate">
        <path d="M112.1,31.25v6h7.6v3.11h-7.6V46.5h9.64v3.23H108.05V28h13.69v3.21Z" style="fill: #fff"/>
        <path d="M124.39,49.73V34.34h2.27a.9.9,0,0,1,.94.67l.24,1.14a8.19,8.19,0,0,1,.85-.82,5.43,5.43,0,0,1,.94-.65,5.66,5.66,0,0,1,1.08-.43A5.08,5.08,0,0,1,132,34.1a3.6,3.6,0,0,1,2.39.78,4.77,4.77,0,0,1,1.41,2.1,4.81,4.81,0,0,1,.9-1.32,5,5,0,0,1,1.18-.89,5.51,5.51,0,0,1,1.37-.51,6.69,6.69,0,0,1,1.47-.16,6.12,6.12,0,0,1,2.26.39,4.36,4.36,0,0,1,1.67,1.14,4.94,4.94,0,0,1,1,1.83,7.79,7.79,0,0,1,.36,2.47v9.8H142.3v-9.8a3.28,3.28,0,0,0-.64-2.21,2.35,2.35,0,0,0-1.89-.74,2.81,2.81,0,0,0-1.06.19,2.49,2.49,0,0,0-.86.57,2.57,2.57,0,0,0-.57.92,3.56,3.56,0,0,0-.21,1.27v9.8h-3.72v-9.8a3.32,3.32,0,0,0-.63-2.25,2.29,2.29,0,0,0-1.82-.7,3.06,3.06,0,0,0-1.51.39,5.2,5.2,0,0,0-1.29,1.09V49.73Z" style="fill: #fff"/>
        <path d="M153.22,36.23a7.84,7.84,0,0,1,2.06-1.56,5.7,5.7,0,0,1,2.59-.57,5.43,5.43,0,0,1,2.41.52,5.3,5.3,0,0,1,1.83,1.51,7.24,7.24,0,0,1,1.16,2.38,11.19,11.19,0,0,1,.41,3.13,11.71,11.71,0,0,1-.47,3.41,7.65,7.65,0,0,1-1.33,2.61,5.86,5.86,0,0,1-2.08,1.69,6,6,0,0,1-2.7.6,5.24,5.24,0,0,1-1.3-.14,5.13,5.13,0,0,1-1.08-.4,4.31,4.31,0,0,1-.91-.62A8.81,8.81,0,0,1,153,48l-.16,1a.89.89,0,0,1-.31.55.94.94,0,0,1-.59.17h-2.45V27.44h3.71Zm0,9.51a3.68,3.68,0,0,0,1.37,1.08,4,4,0,0,0,1.57.31,3.81,3.81,0,0,0,1.54-.3,3,3,0,0,0,1.16-1,5.05,5.05,0,0,0,.74-1.67,10.53,10.53,0,0,0,.25-2.42,6.27,6.27,0,0,0-.84-3.67A2.84,2.84,0,0,0,156.6,37a3.54,3.54,0,0,0-1.87.48,6.21,6.21,0,0,0-1.51,1.38Z" style="fill: #fff"/>
        <path d="M169.39,42.5a7.2,7.2,0,0,0,.42,2,4.21,4.21,0,0,0,.87,1.43,3.56,3.56,0,0,0,1.28.84,4.55,4.55,0,0,0,1.64.28,5.17,5.17,0,0,0,1.56-.21,7.69,7.69,0,0,0,1.14-.47c.32-.17.61-.32.85-.46a1.44,1.44,0,0,1,.71-.21.76.76,0,0,1,.69.34l1.07,1.35a6.06,6.06,0,0,1-1.38,1.21,8.16,8.16,0,0,1-1.6.78,8.33,8.33,0,0,1-1.69.41,12.3,12.3,0,0,1-1.68.12,8.3,8.3,0,0,1-3-.53,6.57,6.57,0,0,1-2.4-1.58,7.31,7.31,0,0,1-1.61-2.58,10,10,0,0,1-.58-3.56,8.48,8.48,0,0,1,.51-3,7.18,7.18,0,0,1,1.46-2.41A6.84,6.84,0,0,1,170,34.7a8.18,8.18,0,0,1,5.78-.14,5.9,5.9,0,0,1,2.11,1.36,6.22,6.22,0,0,1,1.39,2.19,8.06,8.06,0,0,1,.5,3,2.38,2.38,0,0,1-.18,1.13.74.74,0,0,1-.69.3Zm7.06-2.24a4.24,4.24,0,0,0-.2-1.35,3.12,3.12,0,0,0-.61-1.12,2.79,2.79,0,0,0-1-.76,3.92,3.92,0,0,0-4,.64,4.5,4.5,0,0,0-1.18,2.59Z" style="fill: #fff"/>
        <path d="M195.93,27.44V49.73h-2.27a.88.88,0,0,1-.93-.68l-.31-1.48a8,8,0,0,1-2.14,1.72,5.82,5.82,0,0,1-2.82.66,5,5,0,0,1-4.11-2,7.17,7.17,0,0,1-1.17-2.47,12.25,12.25,0,0,1-.42-3.36,10.49,10.49,0,0,1,.47-3.18,7.73,7.73,0,0,1,1.33-2.55,6.32,6.32,0,0,1,2.09-1.69,6,6,0,0,1,2.73-.61,5.48,5.48,0,0,1,2.21.41,5.75,5.75,0,0,1,1.63,1.09V27.44Zm-3.71,10.83a3.68,3.68,0,0,0-1.37-1.08,4.08,4.08,0,0,0-1.6-.32,3.56,3.56,0,0,0-1.52.32,3,3,0,0,0-1.15,1,4.48,4.48,0,0,0-.73,1.62,8.83,8.83,0,0,0-.26,2.32,10,10,0,0,0,.22,2.29,4.49,4.49,0,0,0,.62,1.53,2.36,2.36,0,0,0,1,.85,3.24,3.24,0,0,0,1.3.26,3.78,3.78,0,0,0,2-.48,5.81,5.81,0,0,0,1.53-1.36Z" style="fill: #fff"/>
        <path d="M222.35,44.61a.82.82,0,0,1,.59.26l1.59,1.72a8.71,8.71,0,0,1-3.25,2.51,11.19,11.19,0,0,1-4.63.87,10.94,10.94,0,0,1-4.34-.83A9.6,9.6,0,0,1,209,46.85a10,10,0,0,1-2.09-3.51,13.08,13.08,0,0,1-.73-4.46,12.34,12.34,0,0,1,.78-4.47,10.21,10.21,0,0,1,2.2-3.51,9.8,9.8,0,0,1,3.38-2.28,11.13,11.13,0,0,1,4.35-.82,10.71,10.71,0,0,1,4.21.78,10,10,0,0,1,3.12,2l-1.35,1.87a1.3,1.3,0,0,1-.3.32.89.89,0,0,1-.52.13,1.06,1.06,0,0,1-.47-.12l-.52-.32c-.19-.13-.41-.26-.66-.41a5.89,5.89,0,0,0-.87-.42,8.19,8.19,0,0,0-1.15-.31,8.33,8.33,0,0,0-1.51-.13,6.78,6.78,0,0,0-2.66.52,5.72,5.72,0,0,0-2.08,1.5,6.91,6.91,0,0,0-1.35,2.4,10,10,0,0,0-.48,3.23,9.65,9.65,0,0,0,.52,3.26,7.24,7.24,0,0,0,1.4,2.4A6.07,6.07,0,0,0,214.33,46a6.53,6.53,0,0,0,2.58.52,11.15,11.15,0,0,0,1.49-.09,6.16,6.16,0,0,0,1.23-.29,5.8,5.8,0,0,0,1.07-.5,7.28,7.28,0,0,0,1-.76,1.26,1.26,0,0,1,.32-.21A.69.69,0,0,1,222.35,44.61Z" style="fill: #fff"/>
        <path d="M230.42,36a8.06,8.06,0,0,1,2-1.37,5.76,5.76,0,0,1,2.54-.52,5.41,5.41,0,0,1,2.23.43,4.36,4.36,0,0,1,1.63,1.19,5.22,5.22,0,0,1,1,1.85,7.69,7.69,0,0,1,.34,2.36v9.8h-3.71v-9.8a3.31,3.31,0,0,0-.64-2.18,2.44,2.44,0,0,0-2-.77,3.85,3.85,0,0,0-1.8.43,6.48,6.48,0,0,0-1.59,1.19V49.73h-3.7V27.44h3.7Z" style="fill: #fff"/>
        <path d="M246.49,42.5a7.2,7.2,0,0,0,.42,2,4.21,4.21,0,0,0,.87,1.43,3.56,3.56,0,0,0,1.28.84,4.55,4.55,0,0,0,1.64.28,5.17,5.17,0,0,0,1.56-.21,7.69,7.69,0,0,0,1.14-.47c.32-.17.61-.32.85-.46a1.44,1.44,0,0,1,.71-.21.76.76,0,0,1,.69.34l1.07,1.35a6.06,6.06,0,0,1-1.38,1.21,8.16,8.16,0,0,1-1.6.78,8.33,8.33,0,0,1-1.69.41,12.3,12.3,0,0,1-1.68.12,8.3,8.3,0,0,1-3-.53,6.57,6.57,0,0,1-2.4-1.58,7.31,7.31,0,0,1-1.61-2.58,10,10,0,0,1-.58-3.56,8.48,8.48,0,0,1,.51-3,7.18,7.18,0,0,1,1.46-2.41,6.84,6.84,0,0,1,2.33-1.63,8.18,8.18,0,0,1,5.78-.14A5.9,5.9,0,0,1,255,35.92a6.22,6.22,0,0,1,1.39,2.19,8.06,8.06,0,0,1,.5,3,2.38,2.38,0,0,1-.18,1.13.74.74,0,0,1-.69.3Zm7.06-2.24a4.24,4.24,0,0,0-.2-1.35,3.12,3.12,0,0,0-.61-1.12,2.79,2.79,0,0,0-1-.76,3.92,3.92,0,0,0-4,.64,4.5,4.5,0,0,0-1.18,2.59Z" style="fill: #fff"/>
        <path d="M270.68,37.59a1.69,1.69,0,0,1-.32.33.74.74,0,0,1-.46.12,1,1,0,0,1-.55-.17c-.18-.12-.4-.25-.65-.39a4.1,4.1,0,0,0-.89-.39,4.22,4.22,0,0,0-1.28-.17,4,4,0,0,0-1.71.35,3.15,3.15,0,0,0-1.22,1,4.45,4.45,0,0,0-.73,1.6,9.42,9.42,0,0,0,0,4.31,4.72,4.72,0,0,0,.76,1.61,3.16,3.16,0,0,0,1.2,1,3.57,3.57,0,0,0,1.59.34,3.8,3.8,0,0,0,1.43-.22,4,4,0,0,0,.92-.48q.38-.26.66-.48a1,1,0,0,1,.62-.21.74.74,0,0,1,.67.34l1.07,1.35a6.59,6.59,0,0,1-1.34,1.21,7.57,7.57,0,0,1-1.49.78,7.15,7.15,0,0,1-1.59.41,11.18,11.18,0,0,1-1.63.12,6.89,6.89,0,0,1-2.68-.53,6.29,6.29,0,0,1-2.21-1.55,7.45,7.45,0,0,1-1.49-2.5,9.8,9.8,0,0,1-.55-3.37,9.93,9.93,0,0,1,.49-3.14,7.17,7.17,0,0,1,1.43-2.5,6.51,6.51,0,0,1,2.34-1.66,8.06,8.06,0,0,1,3.21-.6,7.69,7.69,0,0,1,3,.55,7.43,7.43,0,0,1,2.33,1.59Z" style="fill: #fff"/>
        <path d="M277.82,27.44V40.2h.69a1.65,1.65,0,0,0,.6-.09,1.32,1.32,0,0,0,.44-.4L283.37,35a1.73,1.73,0,0,1,.54-.48,1.49,1.49,0,0,1,.75-.16h3.39l-4.78,5.71a4,4,0,0,1-1.11,1,2.77,2.77,0,0,1,.56.52,6.35,6.35,0,0,1,.47.65l5.13,7.47H285a1.73,1.73,0,0,1-.75-.15,1.13,1.13,0,0,1-.53-.51l-3.93-5.84a1.1,1.1,0,0,0-.43-.45,1.71,1.71,0,0,0-.68-.1h-.84v7h-3.7V27.44Z" style="fill: #fff"/>
        <path d="M292.22,42.5a7.2,7.2,0,0,0,.42,2,4.21,4.21,0,0,0,.87,1.43,3.52,3.52,0,0,0,1.29.84,4.52,4.52,0,0,0,1.64.28,5.05,5.05,0,0,0,1.55-.21,6.89,6.89,0,0,0,1.14-.47L300,46a1.41,1.41,0,0,1,.71-.21.76.76,0,0,1,.69.34l1.06,1.35a6.06,6.06,0,0,1-1.38,1.21,8,8,0,0,1-3.29,1.19,12,12,0,0,1-1.67.12,8.35,8.35,0,0,1-3-.53,6.57,6.57,0,0,1-2.4-1.58,7.29,7.29,0,0,1-1.6-2.58,10,10,0,0,1-.59-3.56,8.48,8.48,0,0,1,.51-3,7,7,0,0,1,1.47-2.41,6.8,6.8,0,0,1,2.32-1.63,7.69,7.69,0,0,1,3.1-.6,7.51,7.51,0,0,1,2.68.46,5.94,5.94,0,0,1,2.12,1.36,6.37,6.37,0,0,1,1.39,2.19,8.27,8.27,0,0,1,.5,3,2.38,2.38,0,0,1-.18,1.13.74.74,0,0,1-.69.3Zm7.07-2.24a4.54,4.54,0,0,0-.2-1.35,3.28,3.28,0,0,0-.61-1.12,2.74,2.74,0,0,0-1-.76,3.44,3.44,0,0,0-1.45-.28,3.41,3.41,0,0,0-2.52.92,4.44,4.44,0,0,0-1.18,2.59Z" style="fill: #fff"/>
        <path d="M308.89,37a6.7,6.7,0,0,1,1.71-2.17,3.68,3.68,0,0,1,2.34-.79,2.86,2.86,0,0,1,1.71.47l-.24,2.77a.66.66,0,0,1-.22.38.56.56,0,0,1-.38.12,4.63,4.63,0,0,1-.67-.08,5.07,5.07,0,0,0-.86-.07,3.13,3.13,0,0,0-1.1.18,2.88,2.88,0,0,0-.86.51,3.63,3.63,0,0,0-.67.82,7.52,7.52,0,0,0-.55,1.1v9.48h-3.71V34.34h2.18a1.21,1.21,0,0,1,.79.2,1.18,1.18,0,0,1,.3.73Z" style="fill: #fff"/>
      </g>
    </g>
  </g>
</svg>
