<svg xmlns="http://www.w3.org/2000/svg" width="369" height="71" viewBox="0 0 369 71"><g transform="translate(-671 -63.5)"><g transform="translate(324 84.88)"><g transform="translate(347 -11.88)"><path d="M157.476,149.748l-5.37,1.591a5.324,5.324,0,0,1-3.272.036l-5.406-1.609a.345.345,0,0,0-.452.325v6.852a.429.429,0,0,0,.307.416l6.617,1.989a1.942,1.942,0,0,0,1.067-.018l6.671-2.007a.445.445,0,0,0,.307-.416v-6.816a.356.356,0,0,0-.47-.343Z" transform="translate(-124.97 -128.699)" fill="#fff"/><path d="M148.872,109.117l-15.484-4.606a14.579,14.579,0,0,0-8.311,0l-15.485,4.606a8.353,8.353,0,0,0-5.847,7.967v25.133a8.353,8.353,0,0,0,5.846,7.967l15.486,4.605a14.579,14.579,0,0,0,8.311,0l15.485-4.605a8.353,8.353,0,0,0,5.847-7.967V117.084a8.353,8.353,0,0,0-5.847-7.967Zm-7.543,25.169a2.028,2.028,0,0,1-1.464,1.934l-9.4,2.875a4.021,4.021,0,0,1-2.441,0l-6.147-1.826a.092.092,0,0,0-.127.092V141.9a.721.721,0,0,1-.94.688l-3.146-.922a.738.738,0,0,1-.524-.7V122.211a2.61,2.61,0,0,1,3.326-2.478l8.334,2.478a1.549,1.549,0,0,0,.813-.018l8.261-2.478a2.655,2.655,0,0,1,3.453,2.549Z" transform="translate(-103.744 -103.906)" fill="#fff"/></g></g><line y2="71" transform="translate(750.5 63.5)" fill="none" stroke="#fff" stroke-width="2"/><text transform="translate(775 111)" fill="#fff" font-size="30" font-family="Lato-Bold, Lato" font-weight="700"><tspan x="0" y="0">Embed Checker</tspan></text></g></svg>
