<svg xmlns="http://www.w3.org/2000/svg" xmlns:xlink="http://www.w3.org/1999/xlink" viewBox="0 0 32 32">
  <defs>
    <linearGradient id="linear-gradient--people" x1="3.6" y1="45.058" x2="28.4" y2="20.258" gradientTransform="matrix(1, 0, 0, -1, 0, 48.658)" gradientUnits="userSpaceOnUse">
      <stop offset="0" stop-color="#32a0f0"/>
      <stop offset="1" stop-color="#3f75e5"/>
    </linearGradient>
  </defs>
  <title>people-app-color</title>
  <g>
    <path d="M31.5,16c0,12.4-3.1,15.5-15.5,15.5S.5,28.4.5,16,3.6.5,16,.5,31.5,3.6,31.5,16Z" fill="url(#linear-gradient--people)"/>
    <path d="M13.148,9.357A3.144,3.144,0,1,1,10.005,12.5v0A3.144,3.144,0,0,1,13.148,9.357Zm4.763,13.286H8.356V19.776a2.866,2.866,0,0,1,2.866-2.866h3.822a2.866,2.866,0,0,1,2.867,2.866Zm2.459-11.4A2.356,2.356,0,1,1,18.014,13.6h0a2.356,2.356,0,0,1,2.353-2.359h0Zm3.274,9.489H18.867v-.956a3.592,3.592,0,0,0-.315-1.49.945.945,0,0,0-.1-.218,1.584,1.584,0,0,0-.095-.171,2.367,2.367,0,0,0-.144-.249,1.76,1.76,0,0,1,1.412-.736h2.293a1.725,1.725,0,0,1,1.72,1.72Z" fill="#fff"/>
  </g>
</svg>
