<?xml version="1.0" encoding="utf-8"?>
<!-- Generator: Adobe Illustrator 23.0.4, SVG Export Plug-In . SVG Version: 6.00 Build 0)  -->
<svg version="1.1" id="Layer_1" xmlns="http://www.w3.org/2000/svg" xmlns:xlink="http://www.w3.org/1999/xlink" x="0px" y="0px"
	 viewBox="0 0 512 512" style="enable-background:new 0 0 512 512;" xml:space="preserve">
<style type="text/css">
	.st0{fill:url(#SVGID_1_);}
	.st1{fill:#FFFFFF;}
	.st2{fill:url(#SVGID_2_);}
	.st3{fill:url(#SVGID_3_);}
</style>
<g>
	
		<linearGradient id="SVGID_1_" gradientUnits="userSpaceOnUse" x1="-643.3765" y1="5.102174e-07" x2="-642.3765" y2="5.102174e-07" gradientTransform="matrix(399.9989 399.9989 399.9989 -399.9989 257405.9062 257405.9062)">
		<stop  offset="0" style="stop-color:#419CD6"/>
		<stop  offset="0.9929" style="stop-color:#4672B8"/>
		<stop  offset="1" style="stop-color:#4672B8"/>
	</linearGradient>
	<path class="st0" d="M256,6C156,6,93.5,18.5,56,56S6,156,6,256c0,100,12.5,162.5,50,200s100,50,200,50c100,0,162.5-12.5,200-50
		s50-100,50-200c0-100-12.5-162.5-50-200S356,6,256,6z"/>
	<path class="st1" d="M217.9,155.6c13,0,24.8,5.3,33.3,13.8s13.8,20.3,13.8,33.3c0,13-5.3,24.8-13.8,33.3s-20.3,13.8-33.3,13.8
		c-13,0-24.8-5.3-33.3-13.8s-13.8-20.3-13.8-33.3c0-13,5.3-24.8,13.8-33.3S204.9,155.6,217.9,155.6z"/>
	<path class="st1" d="M276.2,354.9h-58.5h-58.5c-3.6,0-6.9-1.5-9.3-3.9s-3.9-5.7-3.9-9.3v-14.9v-14.9c0-11.9,4.8-22.6,12.6-30.4
		s18.5-12.6,30.4-12.6h28.7h28.7c11.9,0,22.6,4.8,30.4,12.6s12.6,18.5,12.6,30.4v14.9v14.9c0,3.6-1.5,6.9-3.9,9.3
		S279.8,354.9,276.2,354.9z"/>
	<path class="st1" d="M326.2,183.8c9.8,0,18.6,4,25,10.4s10.4,15.2,10.4,25c0,9.8-4,18.6-10.4,25s-15.2,10.4-25,10.4
		c-9.8,0-18.6-4-25-10.4s-10.4-15.2-10.4-25c0-9.8,4-18.6,10.4-25S316.5,183.8,326.2,183.8z"/>
	<path class="st1" d="M362.2,326.1h-22.6h-22.6c-3.6,0-6.9-1.5-9.3-3.9s-3.9-5.7-3.9-9.3v-0.6v-0.6c0-3.9-0.4-7.8-1.2-11.6
		s-2-7.4-3.5-10.8c-0.1-0.6-0.4-1.1-0.6-1.7s-0.5-1.1-0.8-1.6c-0.2-0.4-0.4-0.9-0.7-1.3s-0.5-0.9-0.8-1.3c-0.3-0.6-0.6-1.3-1-1.9
		s-0.8-1.2-1.1-1.8c2.4-3.3,5.6-6.1,9.2-8s7.7-3,12.1-3h17.2h17.2c7.1,0,13.5,2.9,18.2,7.6s7.6,11.1,7.6,18.2v9.2v9.2
		c0,3.6-1.5,6.9-3.9,9.3S365.8,326.1,362.2,326.1z"/>
</g>
</svg>
