<?xml version="1.0" encoding="utf-8"?>
<!-- Generator: Adobe Illustrator 23.0.4, SVG Export Plug-In . SVG Version: 6.00 Build 0)  -->
<svg version="1.1" id="Layer_1" xmlns="http://www.w3.org/2000/svg" xmlns:xlink="http://www.w3.org/1999/xlink" x="0px" y="0px"
	 viewBox="0 0 512 512" style="enable-background:new 0 0 512 512;" xml:space="preserve">
<style type="text/css">
	.st0{fill:url(#SVGID_1_);}
	.st1{fill:#FFFFFF;}
	.st2{fill:url(#SVGID_2_);}
	.st3{fill:url(#SVGID_3_);}
</style>
<g>
	
		<linearGradient id="SVGID_1_" gradientUnits="userSpaceOnUse" x1="-1287.9358" y1="-2.384149e-08" x2="-1286.9358" y2="-2.384149e-08" gradientTransform="matrix(399.9989 399.9989 399.9989 -399.9989 515228.875 515228.875)">
		<stop  offset="0" style="stop-color:#F0492E"/>
		<stop  offset="1" style="stop-color:#DD442E"/>
	</linearGradient>
	<path class="st0" d="M256,6C156,6,93.5,18.5,56,56S6,156,6,256c0,100,12.5,162.5,50,200s100,50,200,50s162.5-12.5,200-50
		s50-100,50-200c0-100-12.5-162.5-50-200S356,6,256,6z"/>
	<path class="st1" d="M236.7,356.5c0,4.2-1.7,7.9-4.4,10.7s-6.5,4.4-10.7,4.4h-33.1h-33.1c-4.2,0-7.9-1.7-10.7-4.4
		s-4.4-6.5-4.4-10.7v-33.1v-33.1c0-4.2,1.7-7.9,4.4-10.7s6.5-4.4,10.7-4.4h33.1h33.1c4.2,0,7.9,1.7,10.7,4.4s4.4,6.5,4.4,10.7v33.1
		V356.5z M236.7,221.7c0,4.2-1.7,7.9-4.4,10.7s-6.5,4.4-10.7,4.4h-33.1h-33.1c-4.2,0-7.9-1.7-10.7-4.4s-4.4-6.5-4.4-10.7v-33.1
		v-33.1c0-4.2,1.7-7.9,4.4-10.7s6.5-4.4,10.7-4.4h33.1h33.1c4.2,0,7.9,1.7,10.7,4.4s4.4,6.5,4.4,10.7v33.1V221.7z M371.6,356.5
		c0,4.2-1.7,7.9-4.4,10.7s-6.5,4.4-10.7,4.4h-33.1h-33.1c-4.2,0-7.9-1.7-10.7-4.4s-4.4-6.5-4.4-10.7v-33.1v-33.1
		c0-4.2,1.7-7.9,4.4-10.7s6.5-4.4,10.7-4.4h33.1h33.1c4.2,0,7.9,1.7,10.7,4.4s4.4,6.5,4.4,10.7v33.1V356.5z M371.6,221.7
		c0,4.2-1.7,7.9-4.4,10.7s-6.5,4.4-10.7,4.4h-33.1h-33.1c-4.2,0-7.9-1.7-10.7-4.4s-4.4-6.5-4.4-10.7v-33.1v-33.1
		c0-4.2,1.7-7.9,4.4-10.7s6.5-4.4,10.7-4.4h33.1h33.1c4.2,0,7.9,1.7,10.7,4.4s4.4,6.5,4.4,10.7v33.1V221.7z"/>
</g>
</svg>
